<mxfile host="app.diagrams.net" modified="2023-09-06T18:38:09.364Z" agent="Mozilla/5.0 (Windows NT 10.0; Win64; x64) AppleWebKit/537.36 (KHTML, like Gecko) Chrome/114.0.0.0 Safari/537.36 OPR/100.0.0.0" etag="3rL1HKS1qdzQ8kQXsz1P" version="21.7.2" type="device">
  <diagram name="Page-1" id="b5b7bab2-c9e2-2cf4-8b2a-24fd1a2a6d21">
    <mxGraphModel dx="1741" dy="970" grid="1" gridSize="10" guides="1" tooltips="1" connect="1" arrows="1" fold="1" page="1" pageScale="1" pageWidth="1400" pageHeight="850" background="none" math="0" shadow="0">
      <root>
        <mxCell id="0" />
        <mxCell id="1" parent="0" />
        <mxCell id="xwdT5xH7PNEaSG-gg4aF-7" value="" style="group" vertex="1" connectable="0" parent="1">
          <mxGeometry x="10" y="10" width="1370" height="810" as="geometry" />
        </mxCell>
        <mxCell id="xwdT5xH7PNEaSG-gg4aF-3" value="" style="group" vertex="1" connectable="0" parent="xwdT5xH7PNEaSG-gg4aF-7">
          <mxGeometry x="39.42446043165467" y="78.07228915662651" width="1292.136690647482" height="692.8915662650603" as="geometry" />
        </mxCell>
        <mxCell id="ZKLYF06V2M5bz6zDYudh-14" value="" style="group" parent="xwdT5xH7PNEaSG-gg4aF-3" vertex="1" connectable="0">
          <mxGeometry width="423.81294964028774" height="273.25301204819283" as="geometry" />
        </mxCell>
        <mxCell id="ZKLYF06V2M5bz6zDYudh-1" value="Node" style="verticalAlign=top;align=left;spacingTop=8;spacingLeft=2;spacingRight=12;shape=cube;size=10;direction=south;fontStyle=4;html=1;whiteSpace=wrap;" parent="ZKLYF06V2M5bz6zDYudh-14" vertex="1">
          <mxGeometry width="423.81294964028774" height="273.25301204819283" as="geometry" />
        </mxCell>
        <mxCell id="ZKLYF06V2M5bz6zDYudh-3" value="Node" style="verticalAlign=top;align=left;spacingTop=8;spacingLeft=2;spacingRight=12;shape=cube;size=10;direction=south;fontStyle=4;html=1;whiteSpace=wrap;" parent="ZKLYF06V2M5bz6zDYudh-14" vertex="1">
          <mxGeometry y="39.03614457831326" width="404.1007194244604" height="234.2168674698796" as="geometry" />
        </mxCell>
        <mxCell id="ZKLYF06V2M5bz6zDYudh-2" value="Node" style="verticalAlign=top;align=left;spacingTop=8;spacingLeft=2;spacingRight=12;shape=cube;size=10;direction=south;fontStyle=4;html=1;whiteSpace=wrap;" parent="ZKLYF06V2M5bz6zDYudh-14" vertex="1">
          <mxGeometry y="82.95180722891568" width="384.3884892086331" height="190.30120481927716" as="geometry" />
        </mxCell>
        <mxCell id="ZKLYF06V2M5bz6zDYudh-4" value="«artifact»&lt;br&gt;&lt;b&gt;ShareApp.html&lt;/b&gt;" style="html=1;whiteSpace=wrap;" parent="ZKLYF06V2M5bz6zDYudh-14" vertex="1">
          <mxGeometry x="9.856115107913668" y="185.421686746988" width="108.41726618705036" height="48.79518072289158" as="geometry" />
        </mxCell>
        <mxCell id="ZKLYF06V2M5bz6zDYudh-5" value="«component»&lt;br&gt;&lt;b&gt;Web App&lt;/b&gt;" style="html=1;dropTarget=0;whiteSpace=wrap;" parent="ZKLYF06V2M5bz6zDYudh-14" vertex="1">
          <mxGeometry x="206.97841726618705" y="165.90361445783137" width="157.6978417266187" height="87.83132530120484" as="geometry" />
        </mxCell>
        <mxCell id="ZKLYF06V2M5bz6zDYudh-6" value="" style="shape=module;jettyWidth=8;jettyHeight=4;" parent="ZKLYF06V2M5bz6zDYudh-5" vertex="1">
          <mxGeometry x="1" width="20" height="20" relative="1" as="geometry">
            <mxPoint x="-156" y="35" as="offset" />
          </mxGeometry>
        </mxCell>
        <mxCell id="ZKLYF06V2M5bz6zDYudh-7" value="" style="endArrow=block;dashed=1;endFill=0;endSize=12;html=1;rounded=0;exitX=1;exitY=0.5;exitDx=0;exitDy=0;entryX=0;entryY=0.5;entryDx=0;entryDy=0;" parent="ZKLYF06V2M5bz6zDYudh-14" source="ZKLYF06V2M5bz6zDYudh-4" target="ZKLYF06V2M5bz6zDYudh-5" edge="1">
          <mxGeometry width="160" relative="1" as="geometry">
            <mxPoint x="82.79136690647482" y="234.2168674698796" as="sourcePoint" />
            <mxPoint x="161.64028776978418" y="234.2168674698796" as="targetPoint" />
          </mxGeometry>
        </mxCell>
        <mxCell id="ZKLYF06V2M5bz6zDYudh-10" value="&lt;span style=&quot;font-weight: normal;&quot;&gt;«manifest»&lt;/span&gt;" style="text;align=center;fontStyle=1;verticalAlign=middle;spacingLeft=3;spacingRight=3;strokeColor=none;rotatable=0;points=[[0,0.5],[1,0.5]];portConstraint=eastwest;html=1;" parent="ZKLYF06V2M5bz6zDYudh-14" vertex="1">
          <mxGeometry x="122.2158273381295" y="175.66265060240968" width="78.84892086330935" height="25.37349397590362" as="geometry" />
        </mxCell>
        <mxCell id="ZKLYF06V2M5bz6zDYudh-11" value="&lt;span style=&quot;font-weight: normal;&quot;&gt;«execution environment»&lt;/span&gt;&lt;br&gt;Chrome/Firefox" style="text;align=center;fontStyle=1;verticalAlign=middle;spacingLeft=3;spacingRight=3;strokeColor=none;rotatable=0;points=[[0,0.5],[1,0.5]];portConstraint=eastwest;html=1;" parent="ZKLYF06V2M5bz6zDYudh-14" vertex="1">
          <mxGeometry x="106.57417266187049" y="97.59036144578316" width="178.64208633093526" height="29.27710843373495" as="geometry" />
        </mxCell>
        <mxCell id="ZKLYF06V2M5bz6zDYudh-12" value="&lt;span style=&quot;font-weight: normal;&quot;&gt;«OS»&lt;/span&gt;&lt;br&gt;Ubuntu Linux" style="text;align=center;fontStyle=1;verticalAlign=middle;spacingLeft=3;spacingRight=3;strokeColor=none;rotatable=0;points=[[0,0.5],[1,0.5]];portConstraint=eastwest;html=1;" parent="ZKLYF06V2M5bz6zDYudh-14" vertex="1">
          <mxGeometry x="112.72438848920864" y="53.67469879518074" width="178.64208633093526" height="29.27710843373495" as="geometry" />
        </mxCell>
        <mxCell id="ZKLYF06V2M5bz6zDYudh-13" value="&lt;span style=&quot;font-weight: normal;&quot;&gt;«device»&lt;/span&gt;&lt;br&gt;Personal Computer" style="text;align=center;fontStyle=1;verticalAlign=middle;spacingLeft=3;spacingRight=3;strokeColor=none;rotatable=0;points=[[0,0.5],[1,0.5]];portConstraint=eastwest;html=1;" parent="ZKLYF06V2M5bz6zDYudh-14" vertex="1">
          <mxGeometry x="118.27338129496403" y="9.759036144578316" width="178.64208633093526" height="29.27710843373495" as="geometry" />
        </mxCell>
        <mxCell id="ZKLYF06V2M5bz6zDYudh-27" value="" style="group" parent="xwdT5xH7PNEaSG-gg4aF-3" vertex="1" connectable="0">
          <mxGeometry y="419.63855421686753" width="423.81294964028774" height="273.25301204819283" as="geometry" />
        </mxCell>
        <mxCell id="ZKLYF06V2M5bz6zDYudh-28" value="Node" style="verticalAlign=top;align=left;spacingTop=8;spacingLeft=2;spacingRight=12;shape=cube;size=10;direction=south;fontStyle=4;html=1;whiteSpace=wrap;" parent="ZKLYF06V2M5bz6zDYudh-27" vertex="1">
          <mxGeometry width="423.81294964028774" height="273.25301204819283" as="geometry" />
        </mxCell>
        <mxCell id="ZKLYF06V2M5bz6zDYudh-30" value="Node" style="verticalAlign=top;align=left;spacingTop=8;spacingLeft=2;spacingRight=12;shape=cube;size=10;direction=south;fontStyle=4;html=1;whiteSpace=wrap;" parent="ZKLYF06V2M5bz6zDYudh-27" vertex="1">
          <mxGeometry y="82.95180722891568" width="384.3884892086331" height="190.30120481927716" as="geometry" />
        </mxCell>
        <mxCell id="ZKLYF06V2M5bz6zDYudh-31" value="«artifact»&lt;br&gt;&lt;b&gt;ShareApp.apk&lt;/b&gt;" style="html=1;whiteSpace=wrap;" parent="ZKLYF06V2M5bz6zDYudh-27" vertex="1">
          <mxGeometry x="9.856115107913668" y="185.421686746988" width="108.41726618705036" height="48.79518072289158" as="geometry" />
        </mxCell>
        <mxCell id="ZKLYF06V2M5bz6zDYudh-32" value="«component»&lt;br&gt;&lt;b&gt;Mobile App&lt;/b&gt;" style="html=1;dropTarget=0;whiteSpace=wrap;" parent="ZKLYF06V2M5bz6zDYudh-27" vertex="1">
          <mxGeometry x="206.97841726618705" y="165.90361445783137" width="157.6978417266187" height="87.83132530120484" as="geometry" />
        </mxCell>
        <mxCell id="ZKLYF06V2M5bz6zDYudh-33" value="" style="shape=module;jettyWidth=8;jettyHeight=4;" parent="ZKLYF06V2M5bz6zDYudh-32" vertex="1">
          <mxGeometry x="1" width="20" height="20" relative="1" as="geometry">
            <mxPoint x="-156" y="35" as="offset" />
          </mxGeometry>
        </mxCell>
        <mxCell id="ZKLYF06V2M5bz6zDYudh-34" value="" style="endArrow=block;dashed=1;endFill=0;endSize=12;html=1;rounded=0;exitX=1;exitY=0.5;exitDx=0;exitDy=0;entryX=0;entryY=0.5;entryDx=0;entryDy=0;" parent="ZKLYF06V2M5bz6zDYudh-27" source="ZKLYF06V2M5bz6zDYudh-31" target="ZKLYF06V2M5bz6zDYudh-32" edge="1">
          <mxGeometry width="160" relative="1" as="geometry">
            <mxPoint x="82.79136690647482" y="234.2168674698796" as="sourcePoint" />
            <mxPoint x="161.64028776978418" y="234.2168674698796" as="targetPoint" />
          </mxGeometry>
        </mxCell>
        <mxCell id="ZKLYF06V2M5bz6zDYudh-35" value="&lt;span style=&quot;font-weight: normal;&quot;&gt;«manifest»&lt;/span&gt;" style="text;align=center;fontStyle=1;verticalAlign=middle;spacingLeft=3;spacingRight=3;strokeColor=none;rotatable=0;points=[[0,0.5],[1,0.5]];portConstraint=eastwest;html=1;" parent="ZKLYF06V2M5bz6zDYudh-27" vertex="1">
          <mxGeometry x="122.2158273381295" y="175.66265060240968" width="78.84892086330935" height="25.37349397590362" as="geometry" />
        </mxCell>
        <mxCell id="ZKLYF06V2M5bz6zDYudh-36" value="&lt;span style=&quot;font-weight: normal;&quot;&gt;«execution environment»&lt;/span&gt;&lt;br&gt;Android" style="text;align=center;fontStyle=1;verticalAlign=middle;spacingLeft=3;spacingRight=3;strokeColor=none;rotatable=0;points=[[0,0.5],[1,0.5]];portConstraint=eastwest;html=1;" parent="ZKLYF06V2M5bz6zDYudh-27" vertex="1">
          <mxGeometry x="106.57417266187049" y="97.59036144578316" width="178.64208633093526" height="29.27710843373495" as="geometry" />
        </mxCell>
        <mxCell id="ZKLYF06V2M5bz6zDYudh-38" value="&lt;span style=&quot;font-weight: normal;&quot;&gt;«device»&lt;/span&gt;&lt;br&gt;Mobile Device" style="text;align=center;fontStyle=1;verticalAlign=middle;spacingLeft=3;spacingRight=3;strokeColor=none;rotatable=0;points=[[0,0.5],[1,0.5]];portConstraint=eastwest;html=1;" parent="ZKLYF06V2M5bz6zDYudh-27" vertex="1">
          <mxGeometry x="118.27338129496403" y="9.759036144578316" width="178.64208633093526" height="29.27710843373495" as="geometry" />
        </mxCell>
        <mxCell id="ZKLYF06V2M5bz6zDYudh-101" value="" style="group" parent="xwdT5xH7PNEaSG-gg4aF-3" vertex="1" connectable="0">
          <mxGeometry x="710.6258992805755" y="78.07228915662651" width="581.5107913669065" height="556.265060240964" as="geometry" />
        </mxCell>
        <mxCell id="ZKLYF06V2M5bz6zDYudh-53" value="Node" style="verticalAlign=top;align=left;spacingTop=8;spacingLeft=2;spacingRight=12;shape=cube;size=10;direction=south;fontStyle=4;html=1;whiteSpace=wrap;" parent="ZKLYF06V2M5bz6zDYudh-101" vertex="1">
          <mxGeometry width="581.5107913669065" height="556.265060240964" as="geometry" />
        </mxCell>
        <mxCell id="ZKLYF06V2M5bz6zDYudh-59" value="&lt;span style=&quot;font-weight: normal;&quot;&gt;«execution environment»&lt;/span&gt;&lt;br&gt;Linux Redhat" style="text;align=center;fontStyle=1;verticalAlign=middle;spacingLeft=3;spacingRight=3;strokeColor=none;rotatable=0;points=[[0,0.5],[1,0.5]];portConstraint=eastwest;html=1;" parent="ZKLYF06V2M5bz6zDYudh-101" vertex="1">
          <mxGeometry x="201.43928057553967" y="19.51807228915663" width="178.64208633093526" height="29.27710843373495" as="geometry" />
        </mxCell>
        <mxCell id="ZKLYF06V2M5bz6zDYudh-69" value="" style="group" parent="ZKLYF06V2M5bz6zDYudh-101" vertex="1" connectable="0">
          <mxGeometry x="19.72208633093524" y="58.5542168674699" width="532.2302158273382" height="107.34939759036148" as="geometry" />
        </mxCell>
        <mxCell id="ZKLYF06V2M5bz6zDYudh-54" value="«artifact»&lt;br&gt;&lt;b&gt;WebServer.jar&lt;/b&gt;" style="html=1;whiteSpace=wrap;" parent="ZKLYF06V2M5bz6zDYudh-69" vertex="1">
          <mxGeometry y="15.614457831325305" width="108.41726618705037" height="48.79518072289158" as="geometry" />
        </mxCell>
        <mxCell id="ZKLYF06V2M5bz6zDYudh-55" value="«component»&lt;br&gt;&lt;b&gt;WebServer&lt;/b&gt;" style="html=1;dropTarget=0;whiteSpace=wrap;" parent="ZKLYF06V2M5bz6zDYudh-69" vertex="1">
          <mxGeometry x="374.53237410071944" width="157.69784172661872" height="97.59036144578316" as="geometry" />
        </mxCell>
        <mxCell id="ZKLYF06V2M5bz6zDYudh-56" value="" style="shape=module;jettyWidth=8;jettyHeight=4;" parent="ZKLYF06V2M5bz6zDYudh-55" vertex="1">
          <mxGeometry x="1" width="20" height="20" relative="1" as="geometry">
            <mxPoint x="-156" y="35" as="offset" />
          </mxGeometry>
        </mxCell>
        <mxCell id="ZKLYF06V2M5bz6zDYudh-58" value="&lt;span style=&quot;font-weight: normal;&quot;&gt;«manifest»&lt;/span&gt;" style="text;align=center;fontStyle=1;verticalAlign=middle;spacingLeft=3;spacingRight=3;strokeColor=none;rotatable=0;points=[[0,0.5],[1,0.5]];portConstraint=eastwest;html=1;" parent="ZKLYF06V2M5bz6zDYudh-69" vertex="1">
          <mxGeometry x="197.12230215827338" width="78.84892086330936" height="25.37349397590362" as="geometry" />
        </mxCell>
        <mxCell id="ZKLYF06V2M5bz6zDYudh-61" value="«artifact»&lt;br&gt;&lt;b&gt;WebServer.conf&lt;/b&gt;" style="html=1;whiteSpace=wrap;" parent="ZKLYF06V2M5bz6zDYudh-69" vertex="1">
          <mxGeometry x="134.0431654676259" y="58.5542168674699" width="108.41726618705037" height="48.79518072289158" as="geometry" />
        </mxCell>
        <mxCell id="ZKLYF06V2M5bz6zDYudh-66" value="" style="endArrow=block;dashed=1;endFill=0;endSize=12;html=1;rounded=0;exitX=1;exitY=0.5;exitDx=0;exitDy=0;" parent="ZKLYF06V2M5bz6zDYudh-69" source="ZKLYF06V2M5bz6zDYudh-54" edge="1">
          <mxGeometry width="160" relative="1" as="geometry">
            <mxPoint x="266.1151079136691" y="117.1084337349398" as="sourcePoint" />
            <mxPoint x="374.53237410071944" y="39.03614457831326" as="targetPoint" />
          </mxGeometry>
        </mxCell>
        <mxCell id="ZKLYF06V2M5bz6zDYudh-67" value="" style="endArrow=open;endFill=1;endSize=12;html=1;rounded=0;entryX=1;entryY=0.5;entryDx=0;entryDy=0;" parent="ZKLYF06V2M5bz6zDYudh-69" target="ZKLYF06V2M5bz6zDYudh-61" edge="1">
          <mxGeometry width="160" relative="1" as="geometry">
            <mxPoint x="374.53237410071944" y="82.95180722891568" as="sourcePoint" />
            <mxPoint x="305.53956834532374" y="136.62650602409641" as="targetPoint" />
          </mxGeometry>
        </mxCell>
        <mxCell id="ZKLYF06V2M5bz6zDYudh-68" value="&lt;span style=&quot;font-weight: normal;&quot;&gt;«use»&lt;/span&gt;" style="text;align=center;fontStyle=1;verticalAlign=middle;spacingLeft=3;spacingRight=3;strokeColor=none;rotatable=0;points=[[0,0.5],[1,0.5]];portConstraint=eastwest;html=1;" parent="ZKLYF06V2M5bz6zDYudh-69" vertex="1">
          <mxGeometry x="275.9712230215828" y="58.5542168674699" width="78.84892086330936" height="25.37349397590362" as="geometry" />
        </mxCell>
        <mxCell id="ZKLYF06V2M5bz6zDYudh-65" style="edgeStyle=orthogonalEdgeStyle;rounded=0;orthogonalLoop=1;jettySize=auto;html=1;exitX=0.5;exitY=1;exitDx=0;exitDy=0;" parent="ZKLYF06V2M5bz6zDYudh-69" source="ZKLYF06V2M5bz6zDYudh-55" target="ZKLYF06V2M5bz6zDYudh-55" edge="1">
          <mxGeometry relative="1" as="geometry" />
        </mxCell>
        <mxCell id="ZKLYF06V2M5bz6zDYudh-70" value="" style="group" parent="ZKLYF06V2M5bz6zDYudh-101" vertex="1" connectable="0">
          <mxGeometry x="19.72208633093524" y="224.45783132530127" width="532.2302158273382" height="107.34939759036148" as="geometry" />
        </mxCell>
        <mxCell id="ZKLYF06V2M5bz6zDYudh-71" value="«artifact»&lt;br&gt;&lt;b&gt;AppServer.jar&lt;/b&gt;" style="html=1;whiteSpace=wrap;" parent="ZKLYF06V2M5bz6zDYudh-70" vertex="1">
          <mxGeometry y="15.614457831325305" width="108.41726618705037" height="48.79518072289158" as="geometry" />
        </mxCell>
        <mxCell id="ZKLYF06V2M5bz6zDYudh-72" value="«component»&lt;br&gt;&lt;b&gt;AppServer&lt;/b&gt;" style="html=1;dropTarget=0;whiteSpace=wrap;" parent="ZKLYF06V2M5bz6zDYudh-70" vertex="1">
          <mxGeometry x="374.53237410071944" width="157.69784172661872" height="97.59036144578316" as="geometry" />
        </mxCell>
        <mxCell id="ZKLYF06V2M5bz6zDYudh-73" value="" style="shape=module;jettyWidth=8;jettyHeight=4;" parent="ZKLYF06V2M5bz6zDYudh-72" vertex="1">
          <mxGeometry x="1" width="20" height="20" relative="1" as="geometry">
            <mxPoint x="-156" y="35" as="offset" />
          </mxGeometry>
        </mxCell>
        <mxCell id="ZKLYF06V2M5bz6zDYudh-74" value="&lt;span style=&quot;font-weight: normal;&quot;&gt;«manifest»&lt;/span&gt;" style="text;align=center;fontStyle=1;verticalAlign=middle;spacingLeft=3;spacingRight=3;strokeColor=none;rotatable=0;points=[[0,0.5],[1,0.5]];portConstraint=eastwest;html=1;" parent="ZKLYF06V2M5bz6zDYudh-70" vertex="1">
          <mxGeometry x="197.12230215827338" width="78.84892086330936" height="25.37349397590362" as="geometry" />
        </mxCell>
        <mxCell id="ZKLYF06V2M5bz6zDYudh-75" value="«artifact»&lt;br&gt;&lt;b&gt;AppServer.jar&lt;/b&gt;" style="html=1;whiteSpace=wrap;" parent="ZKLYF06V2M5bz6zDYudh-70" vertex="1">
          <mxGeometry x="134.0431654676259" y="58.5542168674699" width="108.41726618705037" height="48.79518072289158" as="geometry" />
        </mxCell>
        <mxCell id="ZKLYF06V2M5bz6zDYudh-76" value="" style="endArrow=block;dashed=1;endFill=0;endSize=12;html=1;rounded=0;exitX=1;exitY=0.5;exitDx=0;exitDy=0;" parent="ZKLYF06V2M5bz6zDYudh-70" source="ZKLYF06V2M5bz6zDYudh-71" edge="1">
          <mxGeometry width="160" relative="1" as="geometry">
            <mxPoint x="266.1151079136691" y="117.1084337349398" as="sourcePoint" />
            <mxPoint x="374.53237410071944" y="39.03614457831326" as="targetPoint" />
          </mxGeometry>
        </mxCell>
        <mxCell id="ZKLYF06V2M5bz6zDYudh-77" value="" style="endArrow=open;endFill=1;endSize=12;html=1;rounded=0;entryX=1;entryY=0.5;entryDx=0;entryDy=0;" parent="ZKLYF06V2M5bz6zDYudh-70" target="ZKLYF06V2M5bz6zDYudh-75" edge="1">
          <mxGeometry width="160" relative="1" as="geometry">
            <mxPoint x="374.53237410071944" y="82.95180722891568" as="sourcePoint" />
            <mxPoint x="305.53956834532374" y="136.62650602409641" as="targetPoint" />
          </mxGeometry>
        </mxCell>
        <mxCell id="ZKLYF06V2M5bz6zDYudh-78" value="&lt;span style=&quot;font-weight: normal;&quot;&gt;«run»&lt;/span&gt;" style="text;align=center;fontStyle=1;verticalAlign=middle;spacingLeft=3;spacingRight=3;strokeColor=none;rotatable=0;points=[[0,0.5],[1,0.5]];portConstraint=eastwest;html=1;" parent="ZKLYF06V2M5bz6zDYudh-70" vertex="1">
          <mxGeometry x="275.9712230215828" y="58.5542168674699" width="78.84892086330936" height="25.37349397590362" as="geometry" />
        </mxCell>
        <mxCell id="ZKLYF06V2M5bz6zDYudh-79" style="edgeStyle=orthogonalEdgeStyle;rounded=0;orthogonalLoop=1;jettySize=auto;html=1;exitX=0.5;exitY=1;exitDx=0;exitDy=0;" parent="ZKLYF06V2M5bz6zDYudh-70" source="ZKLYF06V2M5bz6zDYudh-72" target="ZKLYF06V2M5bz6zDYudh-72" edge="1">
          <mxGeometry relative="1" as="geometry" />
        </mxCell>
        <mxCell id="ZKLYF06V2M5bz6zDYudh-91" value="" style="group" parent="ZKLYF06V2M5bz6zDYudh-101" vertex="1" connectable="0">
          <mxGeometry x="19.72208633093524" y="400.12048192771096" width="532.2302158273382" height="107.34939759036148" as="geometry" />
        </mxCell>
        <mxCell id="ZKLYF06V2M5bz6zDYudh-92" value="«artifact»&lt;br&gt;&lt;b&gt;Database.jar&lt;/b&gt;" style="html=1;whiteSpace=wrap;" parent="ZKLYF06V2M5bz6zDYudh-91" vertex="1">
          <mxGeometry y="15.614457831325305" width="108.41726618705037" height="48.79518072289158" as="geometry" />
        </mxCell>
        <mxCell id="ZKLYF06V2M5bz6zDYudh-93" value="«component»&lt;br&gt;&lt;b&gt;Database&lt;/b&gt;" style="html=1;dropTarget=0;whiteSpace=wrap;" parent="ZKLYF06V2M5bz6zDYudh-91" vertex="1">
          <mxGeometry x="374.53237410071944" width="157.69784172661872" height="97.59036144578316" as="geometry" />
        </mxCell>
        <mxCell id="ZKLYF06V2M5bz6zDYudh-94" value="" style="shape=module;jettyWidth=8;jettyHeight=4;" parent="ZKLYF06V2M5bz6zDYudh-93" vertex="1">
          <mxGeometry x="1" width="20" height="20" relative="1" as="geometry">
            <mxPoint x="-156" y="35" as="offset" />
          </mxGeometry>
        </mxCell>
        <mxCell id="ZKLYF06V2M5bz6zDYudh-95" value="&lt;span style=&quot;font-weight: normal;&quot;&gt;«manifest»&lt;/span&gt;" style="text;align=center;fontStyle=1;verticalAlign=middle;spacingLeft=3;spacingRight=3;strokeColor=none;rotatable=0;points=[[0,0.5],[1,0.5]];portConstraint=eastwest;html=1;" parent="ZKLYF06V2M5bz6zDYudh-91" vertex="1">
          <mxGeometry x="197.12230215827338" width="78.84892086330936" height="25.37349397590362" as="geometry" />
        </mxCell>
        <mxCell id="ZKLYF06V2M5bz6zDYudh-96" value="«artifact»&lt;br&gt;&lt;b&gt;DBSchema.xsd&lt;/b&gt;" style="html=1;whiteSpace=wrap;" parent="ZKLYF06V2M5bz6zDYudh-91" vertex="1">
          <mxGeometry x="134.0431654676259" y="58.5542168674699" width="108.41726618705037" height="48.79518072289158" as="geometry" />
        </mxCell>
        <mxCell id="ZKLYF06V2M5bz6zDYudh-97" value="" style="endArrow=block;dashed=1;endFill=0;endSize=12;html=1;rounded=0;exitX=1;exitY=0.5;exitDx=0;exitDy=0;" parent="ZKLYF06V2M5bz6zDYudh-91" source="ZKLYF06V2M5bz6zDYudh-92" edge="1">
          <mxGeometry width="160" relative="1" as="geometry">
            <mxPoint x="266.1151079136691" y="117.1084337349398" as="sourcePoint" />
            <mxPoint x="374.53237410071944" y="39.03614457831326" as="targetPoint" />
          </mxGeometry>
        </mxCell>
        <mxCell id="ZKLYF06V2M5bz6zDYudh-98" value="" style="endArrow=open;endFill=1;endSize=12;html=1;rounded=0;entryX=1;entryY=0.5;entryDx=0;entryDy=0;" parent="ZKLYF06V2M5bz6zDYudh-91" target="ZKLYF06V2M5bz6zDYudh-96" edge="1">
          <mxGeometry width="160" relative="1" as="geometry">
            <mxPoint x="374.53237410071944" y="82.95180722891568" as="sourcePoint" />
            <mxPoint x="305.53956834532374" y="136.62650602409641" as="targetPoint" />
          </mxGeometry>
        </mxCell>
        <mxCell id="ZKLYF06V2M5bz6zDYudh-99" value="&lt;span style=&quot;font-weight: normal;&quot;&gt;«use»&lt;/span&gt;" style="text;align=center;fontStyle=1;verticalAlign=middle;spacingLeft=3;spacingRight=3;strokeColor=none;rotatable=0;points=[[0,0.5],[1,0.5]];portConstraint=eastwest;html=1;" parent="ZKLYF06V2M5bz6zDYudh-91" vertex="1">
          <mxGeometry x="275.9712230215828" y="58.5542168674699" width="78.84892086330936" height="25.37349397590362" as="geometry" />
        </mxCell>
        <mxCell id="ZKLYF06V2M5bz6zDYudh-100" style="edgeStyle=orthogonalEdgeStyle;rounded=0;orthogonalLoop=1;jettySize=auto;html=1;exitX=0.5;exitY=1;exitDx=0;exitDy=0;" parent="ZKLYF06V2M5bz6zDYudh-91" source="ZKLYF06V2M5bz6zDYudh-93" target="ZKLYF06V2M5bz6zDYudh-93" edge="1">
          <mxGeometry relative="1" as="geometry" />
        </mxCell>
        <mxCell id="ZKLYF06V2M5bz6zDYudh-102" value="" style="endArrow=none;html=1;edgeStyle=orthogonalEdgeStyle;rounded=0;" parent="xwdT5xH7PNEaSG-gg4aF-3" source="ZKLYF06V2M5bz6zDYudh-1" edge="1">
          <mxGeometry relative="1" as="geometry">
            <mxPoint x="444.51079136690646" y="409.8795180722892" as="sourcePoint" />
            <mxPoint x="710.6258992805755" y="136.62650602409641" as="targetPoint" />
          </mxGeometry>
        </mxCell>
        <mxCell id="ZKLYF06V2M5bz6zDYudh-104" value="HTTP" style="edgeLabel;resizable=0;html=1;align=right;verticalAlign=bottom;" parent="ZKLYF06V2M5bz6zDYudh-102" connectable="0" vertex="1">
          <mxGeometry x="1" relative="1" as="geometry">
            <mxPoint x="-130" as="offset" />
          </mxGeometry>
        </mxCell>
        <mxCell id="ZKLYF06V2M5bz6zDYudh-105" value="" style="endArrow=none;html=1;edgeStyle=orthogonalEdgeStyle;rounded=0;" parent="xwdT5xH7PNEaSG-gg4aF-3" edge="1">
          <mxGeometry relative="1" as="geometry">
            <mxPoint x="423.81294964028774" y="546.5060240963857" as="sourcePoint" />
            <mxPoint x="710.6258992805755" y="546.5060240963857" as="targetPoint" />
          </mxGeometry>
        </mxCell>
        <mxCell id="ZKLYF06V2M5bz6zDYudh-106" value="HTTP" style="edgeLabel;resizable=0;html=1;align=right;verticalAlign=bottom;" parent="ZKLYF06V2M5bz6zDYudh-105" connectable="0" vertex="1">
          <mxGeometry x="1" relative="1" as="geometry">
            <mxPoint x="-130" as="offset" />
          </mxGeometry>
        </mxCell>
        <mxCell id="xwdT5xH7PNEaSG-gg4aF-4" value="Deployment" style="shape=umlFrame;whiteSpace=wrap;html=1;pointerEvents=0;width=110;height=40;" vertex="1" parent="xwdT5xH7PNEaSG-gg4aF-7">
          <mxGeometry width="1370" height="810" as="geometry" />
        </mxCell>
        <mxCell id="xwdT5xH7PNEaSG-gg4aF-6" value="Sharing App" style="text;html=1;align=center;verticalAlign=middle;resizable=0;points=[];autosize=1;strokeColor=none;fillColor=none;fontStyle=0" vertex="1" parent="xwdT5xH7PNEaSG-gg4aF-7">
          <mxGeometry y="39.036144578313255" width="90" height="30" as="geometry" />
        </mxCell>
      </root>
    </mxGraphModel>
  </diagram>
</mxfile>
